# xmcd
#
# Track frame offsets: 
#        150
#        11598
#        23805
#        38031
#        50449
#        63509
#        75462
#        88700
#        101507
#        115055
#        128475
#        139721
#        152514
#        165330
#        176320
#        188272
#        200548
#        211875
#        223945
#        235358
#        247565
#        260441
#        272481
#        283144
#        292953
#        304483
#        314868
#
# Disc length: 4325 seconds
#
# Revision: 3
# Processed by: cddbd v1.5.2PL0 Copyright (c) Steve Scherf et al.
# Submitted via: ExactAudioCopy v1.0b1
#
DISCID=6f10e31b
DTITLE=Gene Autry - Complete Columbia Christmas Recordings, The
DYEAR=2004
DGENRE=Christmas
TTITLE0=Here Comes Santa Claus (Right Down Santa Claus Lane) (1947)
TTITLE1=An Old Fashioned Tree
TTITLE2=Rudolph The Red-Nosed Reindeer
TTITLE3=If It Doesn't Snow On Christmas
TTITLE4=He's A Chubby Little Fellow
TTITLE5=Santa, Santa, Santa
TTITLE6=Frosty The Snow Man
TTITLE7=When Santa Claus Gets Your Letter
TTITLE8=(Hard Rock, Coco And Joe) The Three Little Dwarfs
TTITLE9=Thirty-Two Feet -- Eight Little Tails
TTITLE10=Poppy The Puppy
TTITLE11=He'll Be Coming Down The Chimney (Like He Always Did Before)
TTITLE12=The Night Before Christmas Song (with Rosemary Clooney)
TTITLE13=Look Out The Window (The Winter Song) (with Rosemary Clooney)
TTITLE14=Merry Texas Christmas, You All!
TTITLE15=The Night Before Christmas (In Texas, That Is)
TTITLE16=Where Did My Snowman Go?
TTITLE17=Freddie, The Little Fir Tree
TTITLE18=Here Comes Santa Claus (Right Down Santa Claus Lane) (1953)
TTITLE19=Santa Claus Is Comin' To Town
TTITLE20=Up On The House Top (Ho Ho Ho)
TTITLE21=I Wish My Mom Would Marry Santa Claus
TTITLE22=Sleigh Bells
TTITLE23=Round, Round The Christmas Tree
TTITLE24=Merry Christmas Waltz
TTITLE25=Everyone's A Child At Christmas
TTITLE26=You Can See Old Santa Claus (When You Find Him In Your Heart)
EXTD=
EXTT0=
EXTT1=
EXTT2=
EXTT3=
EXTT4=
EXTT5=
EXTT6=
EXTT7=
EXTT8=
EXTT9=
EXTT10=
EXTT11=
EXTT12=
EXTT13=
EXTT14=
EXTT15=
EXTT16=
EXTT17=
EXTT18=
EXTT19=
EXTT20=
EXTT21=
EXTT22=
EXTT23=
EXTT24=
EXTT25=
EXTT26=
PLAYORDER=
